HIERARCHY
ROOT Hips
{
  OFFSET 0 0 0
  CHANNELS 6 Xposition Yposition Zposition Zrotation Yrotation Xrotation
  JOINT LeftThigh
  {
    OFFSET 8.409438 0 -5.917753
    CHANNELS 3 Zrotation Yrotation Xrotation
    JOINT LeftLeg
    {
      OFFSET 0 0 -42.358652
      CHANNELS 3 Zrotation Yrotation Xrotation
      JOINT LeftFoot
      {
        OFFSET 0 0 -39.357303
        CHANNELS 3 Zrotation Yrotation Xrotation
      }
    }
  }
  JOINT RightThigh
  {
    OFFSET -8.409438 0 -5.917753
    CHANNELS 3 Zrotation Yrotation Xrotation
    JOINT RightLeg
    {
      OFFSET 0 0 -42.358652
      CHANNELS 3 Zrotation Yrotation Xrotation
      JOINT RightFoot
      {
        OFFSET 0 0 -39.357303
        CHANNELS 3 Zrotation Yrotation Xrotation
      }
    }
  }
  JOINT SpineLow
  {
    OFFSET 0 0 4.719101
    CHANNELS 3 Zrotation Yrotation Xrotation
    JOINT SpineMid
    {
      OFFSET 0 0 12.899191
      CHANNELS 3 Zrotation Yrotation Xrotation
      JOINT Chest
      {
        OFFSET 0 0 12.899191
        CHANNELS 3 Zrotation Yrotation Xrotation
        JOINT LeftShoulder
        {
          OFFSET 7.550562 1.41573 9.438202
          CHANNELS 3 Zrotation Yrotation Xrotation
          JOINT LeftArm
          {
            OFFSET 9.155056 0 4.247191
            CHANNELS 3 Zrotation Yrotation Xrotation
            JOINT LeftForearm
            {
              OFFSET 0 0 25.771955
              CHANNELS 3 Zrotation Yrotation Xrotation
              JOINT LeftHand
              {
                OFFSET 0 0 25.197169
                CHANNELS 3 Zrotation Yrotation Xrotation
              }
            }
          }
        }
        JOINT RightShoulder
        {
          OFFSET -7.550562 1.41573 9.438202
          CHANNELS 3 Zrotation Yrotation Xrotation
          JOINT RightArm
          {
            OFFSET -9.155056 0 4.247191
            CHANNELS 3 Zrotation Yrotation Xrotation
            JOINT RightForearm
            {
              OFFSET 0 0 -25.771955
              CHANNELS 3 Zrotation Yrotation Xrotation
              JOINT RightHand
              {
                OFFSET 0 0 -25.197169
                CHANNELS 3 Zrotation Yrotation Xrotation
              }
            }
          }
        }
        JOINT Neck
        {
          OFFSET 0 0 15.101124
          CHANNELS 3 Zrotation Yrotation Xrotation
          JOINT Head
          {
            OFFSET 0 0 11.325843
            CHANNELS 3 Zrotation Yrotation Xrotation
            End Site
            {
              OFFSET 0 0 14.157303
            }
          }
        }
      }
    }
  }
}
MOTION
Frames: 16
Frame Time: 0.0
0.0  101.685394  0.0  -4.61278  -35.418315  -101.209766  28.418215  -25.894298  6.347578  -0.945255  8.51507  31.328575  6.968837  6.14973  2.87827  -4.396131  0.635397  -6.475954  2.472616  8.27947  17.346582  16.681511  2.928936  0.07073  -5.195487  -1.446138  3.702306  -14.394514  -3.129041  10.383509  -14.394514  -3.129041  10.38351  -14.151794  9.813863  -3.253278  48.567642  55.300824  82.567851  -20.005333  -32.078281  132.513964  125.015652  6.086978  -8.277526  8.284339  3.196482  14.611561  93.525079  5.642348  51.068777  -65.249251  -2.772884  -94.152753  57.37825  34.76408  18.796261  27.092798  5.559064  1.264095  20.292177  4.235227  0.701548  
0.0  101.685394  0.0  -4.559024  -35.646245  -100.584575  28.520714  -25.341791  5.982164  -0.575164  8.437254  31.21497  7.087229  6.14166  2.887964  -3.063294  0.681344  -6.84537  1.965371  8.322535  16.797226  16.22934  2.975317  -0.008687  -5.163178  -1.488227  3.577457  -14.308645  -3.275455  10.05219  -14.308644  -3.275454  10.052189  -14.301964  10.10991  -3.374561  48.445881  55.523071  82.618189  -20.663484  -31.866282  133.128424  124.798734  5.729045  -8.445527  8.531094  3.04103  14.732946  93.648698  6.520185  51.104434  -63.759798  -3.740289  -94.772328  60.230665  34.368792  21.308479  26.609041  5.352206  1.505418  19.92916  4.088923  0.896362  
0.0  101.685394  0.0  -4.45432  -35.643066  -100.276991  28.660062  -24.980894  5.891835  -0.701504  8.43133  30.84174  7.38397  6.147673  3.010546  -1.794808  0.912458  -6.969918  1.370164  8.321302  16.384259  15.871036  3.001  -0.085424  -5.121456  -1.498873  3.514777  -14.19405  -3.324301  9.882367  -14.19405  -3.324301  9.882366  -14.533766  10.127697  -3.375098  48.714232  55.455381  82.989932  -21.261367  -31.819509  133.808051  124.62572  5.424051  -8.473961  8.887285  2.887166  14.998136  93.880894  7.446041  51.365314  -62.79021  -3.556201  -95.334153  62.876598  33.674662  23.672345  26.051512  5.133347  1.481311  19.513202  3.921637  0.892589  
0.0  101.685394  0.0  -4.300649  -35.280558  -100.19554  28.898627  -24.733604  6.052477  -1.1067  8.491572  30.359406  7.508147  6.031524  3.014045  -0.833225  1.31245  -6.984576  0.780235  8.261017  16.172523  15.459158  3.022538  -0.164177  -5.119878  -1.506064  3.48831  -14.189828  -3.349752  9.811912  -14.189827  -3.349752  9.811912  -14.629616  10.182019  -3.317996  49.12143  55.099215  83.485783  -21.724506  -31.870628  134.460283  124.561998  5.245535  -8.426893  9.425212  2.888831  15.394243  94.304974  8.330523  51.758303  -62.404189  -2.473635  -96.081734  64.431383  32.563783  25.39482  25.607858  5.028694  1.298855  19.182929  3.833952  0.763698  
0.0  101.685394  0.0  -3.972766  -34.908176  -100.465223  29.208805  -24.537925  6.369959  -1.683088  8.50299  29.867921  7.665246  5.954715  3.115387  0.097418  1.888638  -6.850341  0.181019  8.162645  16.179108  15.102537  3.055331  -0.22856  -5.094044  -1.484813  3.525885  -14.117417  -3.287959  9.908308  -14.117417  -3.287959  9.908309  -14.645714  10.116453  -3.312941  49.613681  54.657866  84.053658  -21.985997  -32.056783  134.981805  124.658017  5.191878  -8.338507  10.055488  3.012741  15.887598  94.841203  9.268627  52.146528  -63.376813  -1.664847  -95.546249  64.346587  32.34658  24.67583  25.211397  5.031356  0.934002  18.888705  3.819768  0.492806  
0.0  101.685394  0.0  -3.665287  -34.28257  -100.667667  29.767134  -24.379873  6.684119  -2.533385  8.454852  29.214546  7.588544  5.861833  3.17142  0.692344  2.512626  -6.877511  -0.489386  8.07558  16.366825  14.625546  3.103668  -0.306792  -5.095303  -1.488842  3.566981  -14.123179  -3.289862  10.021067  -14.12318  -3.289862  10.021067  -14.456534  10.19726  -3.349292  49.97813  54.215088  84.5035  -22.005952  -32.388735  135.304059  124.819079  5.298916  -8.212781  10.541189  3.369178  15.98709  95.790209  9.684026  52.399849  -64.246116  -0.593803  -95.51657  63.969981  31.95029  24.386059  24.942736  5.16714  0.498905  18.690108  3.903428  0.162643  
0.0  101.685394  0.0  -3.388727  -33.705311  -100.809402  30.377585  -24.285749  6.745388  -3.347464  8.470738  28.740295  7.524585  5.763339  3.251461  1.188959  3.069756  -7.013078  -1.114516  8.01901  16.688123  14.523165  3.179482  -0.30571  -5.07663  -1.524921  3.633573  -14.081023  -3.37629  10.209532  -14.081023  -3.37629  10.209532  -14.330207  10.243151  -3.644255  50.625799  53.975789  85.072894  -21.709803  -32.875405  135.355282  124.889861  5.608611  -8.081331  11.31477  3.826667  16.201945  96.469376  10.260046  52.523106  -64.898784  0.037762  -95.945583  64.182962  31.41453  24.375657  24.779884  5.455071  -0.020982  18.570987  4.098438  -0.238186  
0.0  101.685394  0.0  -3.59038  -32.614435  -100.758354  30.703186  -24.619535  6.667776  -4.473694  8.578244  28.1682  7.555713  5.712894  3.378977  -0.089688  3.471866  -7.552934  -1.476093  7.968597  17.201695  15.278123  3.243209  -0.158005  -5.120155  -1.625321  3.738166  -14.221523  -3.618959  10.518593  -14.221524  -3.61896  10.518593  -14.053642  10.346143  -4.046717  50.95025  53.973683  85.431356  -21.045562  -33.13772  135.088657  124.840795  5.853327  -7.884608  12.036038  4.3392  16.200925  97.020037  10.75909  52.566364  -66.651075  -0.791983  -95.26773  64.790431  31.496232  22.510248  24.23345  5.445742  -0.732542  18.167894  4.062841  -0.767142  
0.0  101.685394  0.0  -3.53369  -31.652705  -100.864993  31.089808  -24.814933  6.609009  -5.461953  8.804577  27.781304  7.54772  5.605469  3.435899  -0.500565  3.733707  -7.56331  -1.533538  8.04622  17.592983  15.193073  3.34571  -0.14275  -5.067454  -1.672208  3.82108  -14.089878  -3.73677  10.752366  -14.089877  -3.736769  10.752365  -14.186902  10.227626  -4.393834  51.49936  54.216897  85.913002  -20.219572  -33.236386  134.578974  124.882673  6.070884  -7.565192  12.418436  4.632241  16.185785  97.396776  11.294737  52.475462  -67.243431  0.074028  -95.185984  64.925186  31.282365  22.493806  23.979398  5.659777  -1.237177  17.981396  4.20399  -1.152148  
0.0  101.685394  0.0  -3.485788  -30.528819  -100.875953  31.25865  -24.973315  6.435172  -6.343562  9.075614  27.492699  7.526439  5.509142  3.477034  -1.290552  3.927577  -7.622451  -1.394883  8.182132  17.954061  15.147552  3.486692  -0.134505  -4.990564  -1.693575  3.851412  -13.885455  -3.800981  10.836047  -13.885455  -3.800981  10.836047  -14.309397  10.079114  -4.464891  51.897937  54.6034  86.362001  -19.466369  -33.421116  133.919679  125.008316  6.286465  -7.22771  12.5902  4.590506  16.112425  97.647674  11.680286  52.328281  -68.003682  1.016038  -94.998885  64.914874  30.932327  22.321456  23.632173  5.67983  -1.585173  17.72442  4.206075  -1.410872  
0.0  101.685394  0.0  -3.389985  -29.247282  -100.876627  31.208384  -25.037858  6.205272  -7.083425  9.367058  27.336601  7.37461  5.451599  3.480291  -2.264533  4.103828  -7.649252  -0.906408  8.303822  18.331183  14.922349  3.67701  -0.142481  -4.943993  -1.703522  3.820587  -13.758751  -3.84218  10.752103  -13.758751  -3.842179  10.752103  -14.296953  10.061294  -4.277262  52.412627  55.203456  86.987479  -18.797197  -33.885694  133.127374  125.150896  6.561105  -7.036054  12.878512  4.49827  16.244949  97.791193  12.037228  52.077135  -68.684867  1.745724  -94.84575  65.229035  30.498092  22.168695  23.386966  5.631997  -1.654467  17.541437  4.167969  -1.458709  
0.0  101.685394  0.0  -3.266318  -27.771116  -100.871788  30.83969  -25.041632  5.938377  -7.606517  9.650408  27.348999  7.142211  5.42406  3.458204  -3.415004  4.293591  -7.666838  -0.351029  8.427722  18.731161  14.664667  3.922092  -0.180075  -4.977118  -1.706438  3.743422  -13.845868  -3.860902  10.544331  -13.845868  -3.860901  10.544331  -13.718331  10.350572  -3.87467  52.685061  55.989047  87.555144  -18.233619  -34.498626  132.361928  125.246468  6.891361  -6.982832  13.405047  4.544063  16.604079  98.043946  12.419369  51.647787  -69.380522  2.679707  -94.660373  65.821696  29.851994  22.26734  23.334969  5.492594  -1.451734  17.500925  4.071086  -1.300687  
0.0  101.685394  0.0  -3.035219  -26.133723  -100.965195  30.170317  -24.892847  5.724056  -8.121378  10.009341  27.40027  6.986754  5.370309  3.437374  -4.423205  4.584898  -7.573951  -0.002664  8.601186  19.108984  14.348191  4.167015  -0.232455  -4.938659  -1.67931  3.680675  -13.733187  -3.806743  10.365668  -13.733187  -3.806742  10.365668  -13.611499  10.368237  -3.602612  53.11698  57.007813  88.460813  -17.652745  -35.141746  131.573458  125.241491  7.246435  -7.155141  13.562789  4.386441  16.792176  98.152635  12.812317  51.040713  -70.273248  3.789683  -94.40712  66.219858  29.256008  22.14075  22.939141  5.318669  -1.376988  17.204033  3.943933  -1.234371  
0.0  101.685394  0.0  -2.743936  -24.424801  -101.155058  29.375279  -24.691809  5.679744  -8.364486  10.404394  27.619595  6.766803  5.229427  3.320211  -5.650607  4.964639  -7.542546  0.461502  8.738187  19.657536  14.001426  4.444798  -0.333318  -4.910191  -1.635849  3.596605  -13.644099  -3.710926  10.12595  -13.644099  -3.710926  10.12595  -13.194055  10.651728  -3.182911  53.490997  58.218931  89.596896  -17.022666  -35.741674  130.803099  125.295033  7.577602  -7.583808  13.794448  4.16672  17.086102  98.274144  13.116895  50.315704  -71.292355  5.125691  -94.136938  66.635979  28.614145  22.081727  22.648233  5.120053  -1.079497  16.983928  3.806249  -1.001059  
0.0  101.685394  0.0  -2.417312  -22.48191  -101.276907  28.215348  -24.346792  5.56292  -8.849008  10.79658  27.663238  6.763868  5.171399  3.294123  -6.541045  5.459366  -7.43669  0.361686  8.926102  20.075018  13.749398  4.7285  -0.38726  -4.871417  -1.585504  3.504345  -13.52566  -3.599441  9.862086  -13.52566  -3.599441  9.862087  -13.05066  10.784136  -2.84001  54.626874  59.87602  91.503738  -16.278849  -36.308764  130.023924  125.357852  7.901397  -8.226175  13.996533  3.862963  17.347087  98.292707  13.453209  49.402711  -72.364819  6.580436  -93.921965  67.165906  28.067611  22.10238  22.070704  4.918571  -0.956624  16.550566  3.660052  -0.896567  
0.0  101.685394  0.0  -2.070716  -20.775048  -101.484999  27.283909  -24.01329  5.613919  -8.590682  11.211058  28.191661  6.140037  4.772358  2.797837  -7.077701  5.942218  -7.263107  0.136598  9.119237  20.547642  13.472446  5.037965  -0.452632  -4.772942  -1.524189  3.431375  -13.243769  -3.462751  9.645927  -13.243769  -3.462751  9.645927  -12.944615  10.99522  -2.540335  56.544507  61.872889  94.255029  -15.419346  -36.915968  129.208174  125.3561  8.265128  -8.994214  14.205579  3.467788  17.580846  98.30583  13.785332  48.339213  -73.473965  8.126626  -93.811068  67.811495  27.518161  22.263869  21.577776  4.778475  -0.704215  16.179445  3.564266  -0.698073  
